#!OML:ASF F:\VICON\USERDATA\INSTALL\rory3\rory3.ASF
:FULLY-SPECIFIED
:DEGREES
85
root -0.47843487997261486 17.658614360239607 34.15995696367051 2.365673951613135 -2.3498033094096016 0.42451825205069404
lfemur -4.500221207722262 1.3845081895782627 -22.401288654266317
ltibia 68.34733484801494
lfoot 33.04511901355955 -14.618599384534164
ltoes 12.12128721370443
rfemur -38.05171080701034 -6.070185059441675 23.53641615277458
rtibia 70.65704635874388
rfoot -5.255061855334623 -5.184508251451881
rtoes 14.711913753750405
lowerback 1.0 0.5918380871618296 0.39833977625393624
upperback 0.31506995434464297 0.084894290188406 1.7521340637896037
thorax -8.305075743741094 0.016881278705861424 1.3022900737735914
lowerneck -19.528363028981005 -4.1592405540738575 -2.138944128487214
upperneck 12.46454808215713 -5.170405059739979 3.1248278643952276
head 7.500892066746441 -2.18298422212703 0.5682599893547408
lclavicle -1.40367350153377e-14 -1.6062756527906764e-15
lhumerus -47.66593976701676 -6.9906468585445065 91.8072114792563
lradius 108.00502795755602
lwrist 32.981847790930644
lhand -32.06854152044059 -6.868593446250086
lfingers nan
lthumb -3.854480522684404 26.31248099804219
rclavicle -5.4048489968347876e-15 1.802222712110126e-15
rhumerus -54.822827120468844 0.3322187855185259 -91.52589148508359
rradius 84.91017224950787
rwrist -13.378963599688717
rhand -22.835874328310503 1.0
rfingers nan
rthumb 3.5965808212557855 14.746453679103295
86
root -0.49961093438618354 17.605588197489986 34.23751628387919 2.3105601808219913 -2.492125683130829 0.30167823838307417
lfemur -5.905718763330306 2.2424216100534937 -21.392544658512747
ltibia 72.28736227231087
lfoot 31.297222652390488 -14.445991040635192
ltoes 12.807529322854236
rfemur -37.832862430397014 -5.475700830832388 23.621606872634352
rtibia 73.54190735488777
rfoot -8.619281033681798 -6.272246159439885
rtoes 15.040862078292719
lowerback 1.0 0.7044388002559919 0.7303572389193711
upperback 0.604995907886601 0.263625267053454 1.7009393208709782
thorax -8.019403383053708 0.08773673327594644 1.1653307633887666
lowerneck -20.68956030466886 -4.164546683850485 -1.958911945258811
upperneck 12.426296410532995 -5.23188861869381 3.0387699371144175
head 7.623070233877822 -2.210604628161146 0.5129456514750429
lclavicle 1.5788133665170368e-14 6.050517430504813e-15
lhumerus -47.98414579147288 -6.690484391227875 91.45619557405702
lradius 105.28447469177287
lwrist 32.844100650657126
lhand -30.411560260605683 -8.296440117224176
lfingers nan
lthumb -2.2308599009047576 24.926803775648803
rclavicle 2.4540440991982477e-14 9.576711266036663e-15
rhumerus -52.49381407001036 0.7744941205064961 -91.91989497410844
rradius 84.65882226054453
rwrist -13.769334261306124
rhand -23.253124638310982 1.0
rfingers nan
rthumb 3.1891202856820806 13.177310882662503
87
root -0.5444142067833679 17.55452611544593 34.503581455287325 2.3670812873027822 -2.3957761701098685 0.03415419750756521
lfemur -7.630173721925734 2.776966154181123 -20.069366396181067
ltibia 76.14634654930356
lfoot 30.137420723648766 -14.730229825402828
ltoes 13.222088437818403
rfemur -37.437401397398695 -4.970035570605312 23.88830295197183
rtibia 75.62712819808404
rfoot -10.967416462675889 -8.795269321460735
rtoes 16.109431461868322
lowerback 1.0 0.7667099941396089 0.9170203361946503
upperback 0.8023859526664581 0.4032788822321314 1.834252040770093
thorax -7.8941311335626025 0.12794935103088412 1.2379258268915205
lowerneck -22.07679766948135 -4.203335211552564 -1.9821702812198145
upperneck 12.41324762354645 -5.292847756917237 3.0016969525257724
head 7.780950614333198 -2.2439701323736827 0.48915944036297687
lclavicle -1.5406455506726688e-14 -6.114754498057441e-15
lhumerus -48.17140296030685 -6.301667809909047 91.13266968574608
lradius 102.40815468704689
lwrist 32.99180094900716
lhand -29.7718400896407 -9.619282752551474
lfingers nan
lthumb -1.5851606301621146 23.672828255899958
rclavicle -6.6623946206541074e-15 -2.321085426167529e-15
rhumerus -50.048260666795194 1.4310480836259245 -92.26312481833034
rradius 84.4086077465022
rwrist -13.326038812802931
rhand -23.943143710391602 1.0
rfingers nan
rthumb 2.5399947595441192 12.060027465163191
88
root -0.607603243270329 17.503665390886994 34.35787627767138 2.520544967031448 -2.5227965820077105 -1.202693172966664
lfemur -9.708296797194716 3.657100693419323 -17.387691154009612
ltibia 80.17660529752766
lfoot 29.01270087072981 -15.791775351832019
ltoes 13.497554019733041
rfemur -36.96645168717743 -4.1254641811768025 25.28219570523526
rtibia 77.17554556330259
rfoot -13.259238364053115 -10.807221572011919
rtoes 17.15046567117486
lowerback 1.0 0.8989571334814475 1.6470246704395464
upperback 0.8049326726984876 0.7193961574819765 2.286999774815042
thorax -8.081157484959872 0.23796752824828554 1.2425525031736637
lowerneck -22.8432717154639 -4.201355814183634 -1.8763902055679587
upperneck 12.3742761828748 -5.268706990918067 2.821353010092648
head 7.851718607990154 -2.267558648227729 0.4256663596923914
lclavicle -4.544216437635921e-15 -2.0351843775921774e-14
lhumerus -48.57066409217967 -5.764608936806604 90.79824724799427
lradius 99.20029085799769
lwrist 33.2606687599596
lhand -31.09403383728162 -9.184202669096166
lfingers nan
lthumb -2.8626990878310443 24.177348793485955
rclavicle 4.109023008175147e-15 -1.6620853449545744e-14
rhumerus -47.77575389074042 2.1288712319553085 -92.57170331788036
rradius 84.24589965162329
rwrist -12.32962582051832
rhand -24.38799316469008 1.0
rfingers nan
rthumb 2.1440554365588556 11.749544331859886
89
root -0.6471024770848566 17.471694979160798 34.10227914117141 2.7649229195059073 -2.584860205217692 -2.845918449299625
lfemur -11.916593851721231 4.611035388763252 -14.184580832192147
ltibia 83.96804191993945
lfoot 27.56022616678952 -17.06239544449114
ltoes 14.076968351189624
rfemur -36.21930183160028 -3.425375726708656 27.18205063162048
rtibia 78.15103682108897
rfoot -15.642998838422418 -12.337784015049547
rtoes 15.822761391492243
lowerback 1.0 0.9417495315275305 3.1061791663410934
upperback 0.6596788345966789 1.028181655302375 2.747279363571936
thorax -8.332552966209382 0.3311080069800829 0.9493350230359117
lowerneck -22.344046856452273 -4.132385248468019 -1.6567566789583419
upperneck 12.102923385547282 -5.17601820615114 2.577815385396712
head 7.703218172951149 -2.273949465852621 0.3448589563389568
lclavicle -2.753227275248649e-14 -2.5272001819312724e-15
lhumerus -49.23587608859276 -5.107488229804686 90.38895949364957
lradius 95.5418714775294
lwrist 33.235350731518125
lhand -31.94950621197254 -8.568215075398243
lfingers nan
lthumb -3.6919509295091895 24.839007141112127
rclavicle -1.841509676505716e-14 1.357110324105319e-15
rhumerus -45.622145579638726 2.937530262466126 -92.9013798586082
rradius 84.31930963880802
rwrist -12.119695009024175
rhand -23.992103988880945 1.0
rfingers nan
rthumb 2.5603902854717138 11.604194725822673
90
root -0.6240339668314896 17.477439287204525 34.559340181082675 3.1481514852370456 -2.0598584098923194 -3.0934564353555203
lfemur -14.65322090165987 4.653739783097304 -13.154265728594746
ltibia 87.26180716685484
lfoot 27.223271395934212 -17.515630900099232
ltoes 15.759168898161747
rfemur -35.4050243752181 -3.7196054026815157 27.51864924938483
rtibia 78.9553781307409
rfoot -18.426563457920466 -13.329969751635662
rtoes 14.847069538773678
lowerback 1.0 0.7629566931554228 4.0032558763443795
upperback 0.4493355146599089 0.9471541500450376 2.745675444303966
thorax -8.258837023951948 0.24871871730941292 0.6843620801362877
lowerneck -22.3542852501901 -4.094183664480181 -1.4827891757454854
upperneck 11.989255201080983 -5.151516874295681 2.4495304977856427
head 7.65175841057661 -2.2935083544988215 0.2941703920310303
lclavicle 4.556981743950168e-15 -1.5880212485518206e-14
lhumerus -49.64351338063629 -4.468004117610956 89.79143542907437
lradius 91.25397439212655
lwrist 33.074438333899785
lhand -32.637093292878674 -7.618565102216994
lfingers nan
lthumb -4.360030059655648 25.845620731049188
rclavicle 1.3994074573539111e-14 -1.1577172615025882e-14
rhumerus -43.2906021683441 3.8442812312122783 -93.22705368795391
rradius 84.51390753876628
rwrist -12.974430437638826
rhand -22.865138503899065 1.0
rfingers nan
rthumb 3.6836916709528533 11.661810430381353
91
root -0.6366564256743511 17.48103615022605 34.66206539528173 3.18524462898153 -1.7508585968507728 -3.0444150627808706
lfemur -17.278075039421203 4.85013430977342 -12.320650838743273
ltibia 90.173298789575
lfoot 25.78846087892469 -17.421586308902096
ltoes 15.065313417454878
rfemur -34.233130999711776 -3.7723744684252307 27.60024769485068
rtibia 79.46476935896126
rfoot -20.791252450472776 -14.434720357109127
rtoes 14.204198255835202
lowerback 1.0 0.6660695938990735 4.2183835649473815
upperback 0.5218428173883976 0.8521838409998144 2.8015942473023348
thorax -8.03478020030472 0.1786104691838158 0.7409676579820861
lowerneck -22.7304333176208 -4.047226305463716 -1.4258178424898473
upperneck 11.794583159742666 -5.09717743879758 2.3638738431999196
head 7.611804870835359 -2.3039044457493407 0.26678690086149154
lclavicle 4.0106840051489494e-14 3.127248803676954e-14
lhumerus -49.93061892913866 -3.9063871887698665 89.10776483769212
lradius 87.08466352036118
lwrist 33.38818342289405
lhand -34.06713619914961 -2.801747237916323
lfingers nan
lthumb -5.765032715449634 30.772543387970337
rclavicle 4.9419570127823715e-14 3.5546065025843076e-14
rhumerus -41.00281946449955 4.901806265760147 -93.47556428086833
rradius 85.11397684453335
rwrist -14.330603337468112
rhand -22.38660574336095 1.0
rfingers nan
rthumb 4.182690965357057 11.63745074305926
